<?xml version="1.0" standalone="no"?>
<!DOCTYPE svg PUBLIC "-//W3C//DTD SVG 20010904//EN"
 "http://www.w3.org/TR/2001/REC-SVG-20010904/DTD/svg10.dtd">
<svg version="1.0" xmlns="http://www.w3.org/2000/svg"
 width="514.000000pt" height="514.000000pt" viewBox="0 0 514.000000 514.000000"
 preserveAspectRatio="xMidYMid meet">
<metadata>
Created by potrace 1.14, written by Peter Selinger 2001-2017
</metadata>
<g transform="translate(0.000000,514.000000) scale(0.100000,-0.100000)"
fill="#000000" stroke="none">
<path d="M2378 5125 c-2 -1 -34 -6 -73 -9 -87 -9 -167 -22 -312 -50 -83 -17
-334 -98 -423 -138 -246 -109 -445 -233 -670 -417 -87 -72 -280 -275 -356
-376 -122 -160 -237 -353 -310 -517 -82 -186 -141 -373 -178 -568 -33 -172
-44 -320 -41 -520 5 -213 7 -250 31 -384 37 -217 101 -430 178 -601 15 -33 35
-76 44 -95 45 -100 157 -283 249 -408 165 -224 398 -446 629 -599 11 -7 35
-23 54 -36 97 -64 297 -166 420 -215 160 -63 396 -129 530 -147 25 -3 52 -8
60 -10 106 -27 564 -27 725 1 145 24 169 29 246 48 35 9 73 18 84 21 25 5 209
68 250 85 17 7 46 19 65 27 581 243 1090 750 1340 1336 66 156 134 369 154
482 3 17 10 55 16 85 6 30 13 78 16 105 3 28 8 61 11 75 12 57 10 450 -3 560
-27 226 -108 538 -185 705 -12 28 -23 52 -23 55 -4 17 -88 179 -130 250 -43
73 -188 285 -205 300 -3 3 -35 39 -71 80 -122 140 -250 260 -392 366 -374 279
-787 443 -1253 498 -94 11 -467 20 -477 11z"/>
</g>
</svg>
