<?xml version="1.0" encoding="UTF-8"?>
<svg version="1.1" xmlns="http://www.w3.org/2000/svg" width="624" height="674" viewBox="0 0 720 674">
<path d="M0 0 C33.09953605 2.06505306 66.92774509 14.45344313 97 28 C97.98436035 28.44279297 98.9687207 28.88558594 99.98291016 29.34179688 C103.16583993 30.78953096 106.33507319 32.26334135 109.5 33.75 C110.55799805 34.24242187 111.61599609 34.73484375 112.70605469 35.2421875 C117.90506184 37.73847902 122.65290388 40.33970995 127.27734375 43.796875 C139.05254987 52.40591111 147.31235979 53.95767958 161.4375 51.875 C164.94870955 51.31632741 168.44694611 50.69555428 171.94186401 50.04310608 C184.30621928 47.77190874 196.90231455 47.79326989 209.4375 47.8125 C210.17500488 47.81310425 210.91250977 47.8137085 211.67236328 47.81433105 C262.72195789 47.92693238 313.29290217 59.09168682 359 82 C359.85223145 82.4213623 360.70446289 82.84272461 361.58251953 83.27685547 C395.71090124 100.24497536 424.65473679 124.72646053 450 153 C450.75676025 153.83966309 450.75676025 153.83966309 451.52880859 154.69628906 C494.67305256 202.85532332 531.42311782 269.09750785 528.17285156 335.67333984 C527.51785292 344.48991764 526.57874068 355.86977522 521 363 C518.21571119 365.05293184 515.28085757 365.96938768 512 367 C510.86433594 367.40863281 509.72867188 367.81726563 508.55859375 368.23828125 C492.63958457 373.80036948 475.79101847 375.61070428 459 376 C457.90236328 376.02723145 456.80472656 376.05446289 455.67382812 376.08251953 C375.29958783 377.77382501 297.15814007 358.61218516 222.8125 329.6875 C221.86425354 329.31958344 220.91600708 328.95166687 219.93902588 328.57260132 C209.87137506 324.65638173 199.8810028 320.60193125 190.01171875 316.20703125 C188.78229301 315.66377449 188.78229301 315.66377449 187.5280304 315.10954285 C183.05182314 313.0850553 178.9127005 310.98989747 175 308 C175 307.34 175 306.68 175 306 C182.18595978 307.19877494 189.16090831 308.73677659 196.16796875 310.72265625 C198.11208899 311.26269081 200.05634949 311.80222061 202.00073242 312.34130859 C203.00880951 312.62222351 204.0168866 312.90313843 205.05551147 313.19256592 C227.88935394 319.5348426 250.7975673 325.18430893 274 330 C274.75144287 330.15686279 275.50288574 330.31372559 276.27709961 330.4753418 C312.44893654 338.00508568 349.23548557 343.36386392 386 347 C387.86785156 347.19529297 387.86785156 347.19529297 389.7734375 347.39453125 C415.70338609 349.75773572 415.70338609 349.75773572 441 345 C443.88598997 342.52783397 443.88598997 342.52783397 446 340 C442.17168947 331.57771683 432.50693328 326.80676389 424.625 322.75 C423.7263623 322.28601807 422.82772461 321.82203613 421.90185547 321.34399414 C371.36480913 295.82618124 316.74505643 286.58143037 260.96722412 281.19140625 C259.13082199 281.01272867 257.29511477 280.82694862 255.45947266 280.640625 C239.50753737 279.06164422 223.58001387 278.77687376 207.5625 278.6875 C206.11620209 278.67305847 206.11620209 278.67305847 204.64068604 278.6583252 C176.0358701 278.0418459 176.0358701 278.0418459 150.0625 288.125 C144.13108125 296.39303825 142.09744434 306.06934699 143.23828125 316.09375 C145.52984724 328.87096644 153.016558 338.16602783 162 347 C162.86753906 347.86625 163.73507812 348.7325 164.62890625 349.625 C214.4665601 397.1601691 295.26450299 416.68004624 361 430 C360 432 360 432 358.09022522 432.66674805 C356.82752052 432.96125854 356.82752052 432.96125854 355.53930664 433.26171875 C354.57776672 433.48991302 353.61622681 433.7181073 352.62554932 433.95321655 C351.5644696 434.19553009 350.50338989 434.43784363 349.41015625 434.6875 C348.30371765 434.94632965 347.19727905 435.2051593 346.05731201 435.47183228 C342.39459934 436.32450965 338.72886641 437.16318178 335.0625 438 C333.81270355 438.2876825 332.5629071 438.57536499 331.27523804 438.87176514 C313.17128056 443.03512508 295.02662211 446.97002285 276.8125 450.625 C275.80542999 450.82851074 274.79835999 451.03202148 273.76077271 451.24169922 C225.25841292 460.99862194 181.32495541 462.13274161 133.875 446.875 C133.18414307 446.65811523 132.49328613 446.44123047 131.78149414 446.21777344 C127.39467844 444.74629123 123.80207149 442.70377292 119.93310547 440.18164062 C105.50152169 431.36011177 83.02037603 428.72049754 66.54296875 432.15234375 C62.23502212 433.58832596 59.23351303 435.86468477 56 439 C55.39542969 439.56589844 54.79085937 440.13179688 54.16796875 440.71484375 C45.50736652 449.63960378 41.59018599 461.04039637 41.7265625 473.24609375 C42.65564882 486.00112172 47.45330182 497.62391247 53 509 C53.5465625 510.12277344 54.093125 511.24554688 54.65625 512.40234375 C65.99040592 534.45583109 83.49246424 553.90308279 103 569 C103.5475293 569.42394043 104.09505859 569.84788086 104.65917969 570.28466797 C151.24575583 606.08125946 210.04585827 628.56170194 269.37792969 622.04443359 C275.78796397 621.20044126 282.16844417 619.8875789 288 617 C288.33 616.34 288.66 615.68 289 615 C281.68220779 612.25777001 274.60534561 611.06970236 266.875 610.0625 C242.5480487 606.65895115 219.49047761 599.51789619 200 584 C198.94039063 583.18789062 198.94039063 583.18789062 197.859375 582.359375 C185.2019169 572.09387748 177.56621439 557.91887461 175 542 C174.95716346 540.33388392 174.94150249 538.66563976 175 537 C175.57363281 537.15855469 176.14726562 537.31710937 176.73828125 537.48046875 C178.63393566 538.00112649 180.5328965 538.50978243 182.43359375 539.01171875 C184.85971828 539.68401832 187.26925754 540.41857052 189.66015625 541.20703125 C200.79272123 544.71834911 211.7968763 545.74551707 223.375 546.5625 C247.53092967 548.28057877 268.39310506 552.26361903 290.06738281 563.37207031 C294.79626291 565.72146498 298.67936974 566.92027028 304 567 C307.40442902 565.74230718 307.40442902 565.74230718 310.5625 563.625 C311.45412842 563.08286865 311.45412842 563.08286865 312.36376953 562.52978516 C314.25680087 561.37455573 316.1297065 560.19163999 318 559 C343.07536685 543.07617838 367.83550731 540.51638147 397.00738525 537.88116455 C420.52860852 535.75462362 443.63143566 533.25599509 466.375 526.6875 C468.94297222 525.95329484 471.5135259 525.23044145 474.0859375 524.51171875 C475.1795459 524.19678467 476.2731543 523.88185059 477.39990234 523.55737305 C480 523 480 523 482 524 C475.87132934 534.15794563 469.44320072 543.76181519 462 553 C461.26007812 553.93328125 460.52015625 554.8665625 459.7578125 555.828125 C446.27896149 572.61672946 431.07370006 588.83799779 414 602 C412.948576 602.85046581 411.89920407 603.70347291 410.8515625 604.55859375 C396.54258716 616.15838646 381.03275739 625.97027268 365 635 C364.33742188 635.37721191 363.67484375 635.75442383 362.9921875 636.14306641 C319.9277368 660.49348007 271.06758793 671.64357757 222 674 C221.26700684 674.03609375 220.53401367 674.0721875 219.77880859 674.109375 C215.50766259 674.28869365 211.26717952 674.19798092 207 674 C206.02643555 673.95891113 205.05287109 673.91782227 204.04980469 673.87548828 C120.83259258 670.0663354 41.59289848 634.34852003 -14.7890625 572.5859375 C-56.27050228 526.55195208 -82.65492091 469.93986482 -93 409 C-93.16661133 408.03255859 -93.33322266 407.06511719 -93.50488281 406.06835938 C-96.16700064 389.72086147 -96.30943664 373.33370383 -96.375 356.8125 C-96.38294586 355.76466339 -96.39089172 354.71682678 -96.39907837 353.63723755 C-96.51554694 333.62872039 -94.81321815 313.89080804 -90.25 294.375 C-89.99468506 293.25802734 -89.73937012 292.14105469 -89.47631836 290.99023438 C-86.9190309 280.1215696 -83.66270508 269.54179342 -80 259 C-79.73106934 258.21286621 -79.46213867 257.42573242 -79.18505859 256.61474609 C-74.29273279 242.38660592 -68.20323009 228.69682243 -62 215 C-61.61054199 214.12778809 -61.22108398 213.25557617 -60.81982422 212.35693359 C-53.71851247 196.48175191 -44.86458782 181.86151428 -35.375 167.3125 C-19.72448644 144.99252114 -19.72448644 144.99252114 -12.8581543 119.37792969 C-12.8509285 118.43596237 -12.8437027 117.49399506 -12.83625793 116.52348328 C-12.83029854 114.98818718 -12.83029854 114.98818718 -12.82421875 113.421875 C-12.8044629 111.2220751 -12.78341542 109.02228651 -12.76123047 106.82250977 C-12.75009216 105.66792267 -12.73895386 104.51333557 -12.72747803 103.32376099 C-12.49169199 82.24610929 -11.72698564 61.78384873 -8 41 C-7.7951297 39.84769897 -7.7951297 39.84769897 -7.58612061 38.67211914 C-5.96193979 29.56522539 -4.26973187 20.47199779 -2.48828125 11.39453125 C-2.2853672 10.35936371 -2.2853672 10.35936371 -2.07835388 9.30328369 C-1.45906701 6.18115086 -0.81446887 3.07758814 0 0 Z " fill="#1DA1D7" transform="translate(96,0)"/>
<path d="M0 0 C26.85285101 13.47103157 53.23665376 37.00473514 64.34375 65.27734375 C66.37183283 72.33318542 65.65740937 78.38380704 63.18359375 85.19921875 C51.2358742 85.53903866 39.95189445 85.47942182 28.26611328 82.6953125 C26.02370536 82.16113045 23.77426802 81.66538986 21.5234375 81.16796875 C2.91126347 76.9159779 -15.14008916 70.54806318 -31.81640625 61.19921875 C-32.89051758 60.59835449 -32.89051758 60.59835449 -33.98632812 59.98535156 C-57.94333481 46.38616607 -85.15025382 25.68137528 -93.81640625 -1.80078125 C-94.48218419 -5.95581873 -94.70222292 -9.67131238 -93.81640625 -13.80078125 C-77.23665826 -33.06913702 -18.60660949 -8.95979082 0 0 Z " fill="#FDFEFE" transform="translate(396.81640625,168.80078125)"/>
</svg>